<svg class="diagram-root" style="background: #f5f6f6" xmlns="http://www.w3.org/2000/svg" xmlns:xlink="http://www.w3.org/1999/xlink"><style>.diagram-root { font-family: "Helvetica Neue", sans-serif; font-size: 12px; } .t { overflow: visible; } .t-bg { y: 40; fill: #fff;   } .th { fill: #005aa0;   } .tht { fill: #fff; font-size: 14px;  } .tf { fill: #323c46; overflow: visible; } .tf.pk { fill: #005aa0; font-weight: bold; } .tf.fk { font-weight: bold; } .ty { fill: #adb1b5; font-weight: normal; text-anchor: end; } .r { fill: transparent; stroke: #c3c3c3; stroke-width: 1; } .l { stroke: 1; } .i { fill: #c2c7ce; stroke: #c2c7ce; } .i.ix { fill: #afb3b6; stroke: #000; } .fa { fill: transparent; overflow: visible; } .fa .bg.hover { fill: #f7f7f7; } .c { cy: 12; r: 4; stroke: #d2d2dc; fill: #d2d2dc; } .hr { fill: transparent; stroke: #323c46; stroke-opacity: 0.035; stroke-width: 13; } .dc { stroke: #fa5a3c; fill: #fa5a3c; } .x { stroke: white; stroke-width: 1; } .hl .th { fill: #1b9bff; } .hl .tht {  } .fhl .bg { fill: #e7f4ff; } .fhls .bg {  } .r.hl { stroke: #1b9bff; } .dim { opacity: 0.25; }</style><g class="drawing-wrapper" transform="translate(-213, 0) scale(1,1)"><g class="rs"><path d="M 482 415 m -1, 0 a 1,1 0 1,0 2,0 a 1,1 0 1,0 -2,0 M 482 415 m -0.5, 0 a 0.5,0.5 0 1,0 1,0 a 0.5,0.5 0 1,0 -1,0  M482 415 L482 415 494 415 M 482 421 m -1, 0 a 1,1 0 1,0 2,0 a 1,1 0 1,0 -2,0 M 482 421 m -0.5, 0 a 0.5,0.5 0 1,0 1,0 a 0.5,0.5 0 1,0 -1,0  M482 421 L482 421 489 415 482 409 M 482 409 m -1, 0 a 1,1 0 1,0 2,0 a 1,1 0 1,0 -2,0 M 482 409 m -0.5, 0 a 0.5,0.5 0 1,0 1,0 a 0.5,0.5 0 1,0 -1,0  M494 415 Q 549 415, 604 345 T 714 275 M 726 275 m -1, 0 a 1,1 0 1,0 2,0 a 1,1 0 1,0 -2,0 M 726 275 m -0.5, 0 a 0.5,0.5 0 1,0 1,0 a 0.5,0.5 0 1,0 -1,0  M726 275 L726 275 714 275 M720 281 L720 281 720 269" id="h204939704" class="r"></path><path d="M 714 446 m -1, 0 a 1,1 0 1,0 2,0 a 1,1 0 1,0 -2,0 M 714 446 m -0.5, 0 a 0.5,0.5 0 1,0 1,0 a 0.5,0.5 0 1,0 -1,0  M714 446 L714 446 702 446 M708 452 L708 452 708 440 M702 446 Q 650 446, 598 418 T 494 390 M 482 390 m -1, 0 a 1,1 0 1,0 2,0 a 1,1 0 1,0 -2,0 M 482 390 m -0.5, 0 a 0.5,0.5 0 1,0 1,0 a 0.5,0.5 0 1,0 -1,0  M482 390 L482 390 494 390 M488 396 L488 396 488 384" id="h3177548053" class="r"></path><path d="M 424 204 m -1, 0 a 1,1 0 1,0 2,0 a 1,1 0 1,0 -2,0 M 424 204 m -0.5, 0 a 0.5,0.5 0 1,0 1,0 a 0.5,0.5 0 1,0 -1,0  M424 204 L424 204 436 204 M 424 210 m -1, 0 a 1,1 0 1,0 2,0 a 1,1 0 1,0 -2,0 M 424 210 m -0.5, 0 a 0.5,0.5 0 1,0 1,0 a 0.5,0.5 0 1,0 -1,0  M424 210 L424 210 431 204 424 198 M 424 198 m -1, 0 a 1,1 0 1,0 2,0 a 1,1 0 1,0 -2,0 M 424 198 m -0.5, 0 a 0.5,0.5 0 1,0 1,0 a 0.5,0.5 0 1,0 -1,0  M436 204 C 578.8 204, 544 390, 494 390 M 482 390 m -1, 0 a 1,1 0 1,0 2,0 a 1,1 0 1,0 -2,0 M 482 390 m -0.5, 0 a 0.5,0.5 0 1,0 1,0 a 0.5,0.5 0 1,0 -1,0  M482 390 L482 390 494 390 M488 396 L488 396 488 384" id="h1139284389" class="r"></path><path d="M 235 229 m -1, 0 a 1,1 0 1,0 2,0 a 1,1 0 1,0 -2,0 M 235 229 m -0.5, 0 a 0.5,0.5 0 1,0 1,0 a 0.5,0.5 0 1,0 -1,0  M235 229 L235 229 223 229 M 235 235 m -1, 0 a 1,1 0 1,0 2,0 a 1,1 0 1,0 -2,0 M 235 235 m -0.5, 0 a 0.5,0.5 0 1,0 1,0 a 0.5,0.5 0 1,0 -1,0  M235 235 L235 235 228 229 235 223 M 235 223 m -1, 0 a 1,1 0 1,0 2,0 a 1,1 0 1,0 -2,0 M 235 223 m -0.5, 0 a 0.5,0.5 0 1,0 1,0 a 0.5,0.5 0 1,0 -1,0  M223 229 C 173 229, 49.39999999999998 87, 429 87 M 441 87 m -1, 0 a 1,1 0 1,0 2,0 a 1,1 0 1,0 -2,0 M 441 87 m -0.5, 0 a 0.5,0.5 0 1,0 1,0 a 0.5,0.5 0 1,0 -1,0  M441 87 L441 87 429 87 M435 93 L435 93 435 81" id="h1607168654" class="r"></path><path d="M 730 114 m -1, 0 a 1,1 0 1,0 2,0 a 1,1 0 1,0 -2,0 M 730 114 m -0.5, 0 a 0.5,0.5 0 1,0 1,0 a 0.5,0.5 0 1,0 -1,0  M730 114 L730 114 718 114 M724 120 L724 120 724 108 M718 114 Q 699 114, 680 100.5 T 642 87 M 630 87 m -1, 0 a 1,1 0 1,0 2,0 a 1,1 0 1,0 -2,0 M 630 87 m -0.5, 0 a 0.5,0.5 0 1,0 1,0 a 0.5,0.5 0 1,0 -1,0  M630 87 L630 87 642 87 M636 93 L636 93 636 81" id="h1397587031" class="r"></path><path d="M 730 139 m -1, 0 a 1,1 0 1,0 2,0 a 1,1 0 1,0 -2,0 M 730 139 m -0.5, 0 a 0.5,0.5 0 1,0 1,0 a 0.5,0.5 0 1,0 -1,0  M730 139 L730 139 718 139 M 730 145 m -1, 0 a 1,1 0 1,0 2,0 a 1,1 0 1,0 -2,0 M 730 145 m -0.5, 0 a 0.5,0.5 0 1,0 1,0 a 0.5,0.5 0 1,0 -1,0  M730 145 L730 145 723 139 730 133 M 730 133 m -1, 0 a 1,1 0 1,0 2,0 a 1,1 0 1,0 -2,0 M 730 133 m -0.5, 0 a 0.5,0.5 0 1,0 1,0 a 0.5,0.5 0 1,0 -1,0  M718 139 Q 662 139, 606 264.5 T 494 390 M 482 390 m -1, 0 a 1,1 0 1,0 2,0 a 1,1 0 1,0 -2,0 M 482 390 m -0.5, 0 a 0.5,0.5 0 1,0 1,0 a 0.5,0.5 0 1,0 -1,0  M482 390 L482 390 494 390 M488 396 L488 396 488 384" id="h2286254435" class="r"></path></g><g class="hrs"></g><g class="ts"><svg width="183" height="225" x="299" y="333" id="h1639608377" class="t"><rect height="40" width="183" class="th"></rect><text x="13" y="25" class="tht">employees</text><rect height="185" width="183" class="t-bg" y="40"></rect><text x="13" y="61" class="tf pk">emp_no<tspan x="170" class="ty">INTEGER</tspan></text><path d="M7,14A2,2 0 0,1 5,12A2,2 0 0,1 7,10A2,2 0 0,1 9,12A2,2 0 0,1 7,14M12.65,10C11.83,7.67 9.61,6 7, 6A6, 6 0 0, 0 1, 12A6, 6 0 0, 0 7, 18C9.61, 18 11.83, 16.33 12.65, 14H17V18H21V14H23V10H12.65Z" class="i pk" transform="translate(97, 48) scale(0.65)"></path><text x="13" y="86" class="tf fk">emp_title<tspan x="170" class="ty">VARCHAR(10)</tspan></text><text x="13" y="111" class="tf">birth_date<tspan x="170" class="ty">Date</tspan></text><text x="13" y="136" class="tf">first_name<tspan x="170" class="ty">VARCHAR(30)</tspan></text><text x="13" y="161" class="tf">last_name<tspan x="170" class="ty">VARCHAR(30)</tspan></text><text x="13" y="186" class="tf">Sex<tspan x="170" class="ty">CHAR(6)</tspan></text><text x="13" y="211" class="tf">hire_date<tspan x="170" class="ty">Date</tspan></text></svg><svg width="180" height="100" x="726" y="218" id="h311790747" class="t"><rect height="40" width="180" class="th"></rect><text x="13" y="25" class="tht">titles</text><rect height="60" width="180" class="t-bg" y="40"></rect><text x="13" y="61" class="tf pk">title_id<tspan x="167" class="ty">VARCHAR(10)</tspan></text><path d="M7,14A2,2 0 0,1 5,12A2,2 0 0,1 7,10A2,2 0 0,1 9,12A2,2 0 0,1 7,14M12.65,10C11.83,7.67 9.61,6 7, 6A6, 6 0 0, 0 1, 12A6, 6 0 0, 0 7, 18C9.61, 18 11.83, 16.33 12.65, 14H17V18H21V14H23V10H12.65Z" class="i pk" transform="translate(69, 48) scale(0.65)"></path><text x="13" y="86" class="tf">title<tspan x="167" class="ty">VARCHAR(30)</tspan></text></svg><svg width="165" height="100" x="714" y="389" id="h2472833127" class="t"><rect height="40" width="165" class="th"></rect><text x="13" y="25" class="tht">salaries</text><rect height="60" width="165" class="t-bg" y="40"></rect><text x="13" y="61" class="tf pk">emp_no<tspan x="152" class="ty">INTEGER</tspan></text><path d="M7,14A2,2 0 0,1 5,12A2,2 0 0,1 7,10A2,2 0 0,1 9,12A2,2 0 0,1 7,14M12.65,10C11.83,7.67 9.61,6 7, 6A6, 6 0 0, 0 1, 12A6, 6 0 0, 0 7, 18C9.61, 18 11.83, 16.33 12.65, 14H17V18H21V14H23V10H12.65Z" class="i pk" transform="translate(79, 48) scale(0.65)"></path><text x="13" y="86" class="tf">salary<tspan x="152" class="ty">INTEGER</tspan></text></svg><svg width="189" height="100" x="235" y="147" id="h1090417462" class="t"><rect height="40" width="189" class="th"></rect><text x="13" y="25" class="tht">dept_emp</text><rect height="60" width="189" class="t-bg" y="40"></rect><text x="13" y="61" class="tf pk">emp_no<tspan x="176" class="ty">INTEGER</tspan></text><path d="M7,14A2,2 0 0,1 5,12A2,2 0 0,1 7,10A2,2 0 0,1 9,12A2,2 0 0,1 7,14M12.65,10C11.83,7.67 9.61,6 7, 6A6, 6 0 0, 0 1, 12A6, 6 0 0, 0 7, 18C9.61, 18 11.83, 16.33 12.65, 14H17V18H21V14H23V10H12.65Z" class="i pk" transform="translate(103, 48) scale(0.65)"></path><text x="13" y="86" class="tf pk">dept_no<tspan x="176" class="ty">VARCHAR(10)</tspan></text><path d="M7,14A2,2 0 0,1 5,12A2,2 0 0,1 7,10A2,2 0 0,1 9,12A2,2 0 0,1 7,14M12.65,10C11.83,7.67 9.61,6 7, 6A6, 6 0 0, 0 1, 12A6, 6 0 0, 0 7, 18C9.61, 18 11.83, 16.33 12.65, 14H17V18H21V14H23V10H12.65Z" class="i pk" transform="translate(78, 73) scale(0.65)"></path></svg><svg width="189" height="100" x="441" y="30" id="h475896179" class="t"><rect height="40" width="189" class="th"></rect><text x="13" y="25" class="tht">departments</text><rect height="60" width="189" class="t-bg" y="40"></rect><text x="13" y="61" class="tf pk">dept_no<tspan x="176" class="ty">VARCHAR(10)</tspan></text><path d="M7,14A2,2 0 0,1 5,12A2,2 0 0,1 7,10A2,2 0 0,1 9,12A2,2 0 0,1 7,14M12.65,10C11.83,7.67 9.61,6 7, 6A6, 6 0 0, 0 1, 12A6, 6 0 0, 0 7, 18C9.61, 18 11.83, 16.33 12.65, 14H17V18H21V14H23V10H12.65Z" class="i pk" transform="translate(78, 48) scale(0.65)"></path><text x="13" y="86" class="tf">dept_name<tspan x="176" class="ty">VARCHAR(30)</tspan></text></svg><svg width="189" height="100" x="730" y="57" id="h1676682957" class="t"><rect height="40" width="189" class="th"></rect><text x="13" y="25" class="tht">dept_manager</text><rect height="60" width="189" class="t-bg" y="40"></rect><text x="13" y="61" class="tf pk">dept_no<tspan x="176" class="ty">VARCHAR(10)</tspan></text><path d="M7,14A2,2 0 0,1 5,12A2,2 0 0,1 7,10A2,2 0 0,1 9,12A2,2 0 0,1 7,14M12.65,10C11.83,7.67 9.61,6 7, 6A6, 6 0 0, 0 1, 12A6, 6 0 0, 0 7, 18C9.61, 18 11.83, 16.33 12.65, 14H17V18H21V14H23V10H12.65Z" class="i pk" transform="translate(78, 48) scale(0.65)"></path><text x="13" y="86" class="tf pk">emp_no<tspan x="176" class="ty">INTEGER</tspan></text><path d="M7,14A2,2 0 0,1 5,12A2,2 0 0,1 7,10A2,2 0 0,1 9,12A2,2 0 0,1 7,14M12.65,10C11.83,7.67 9.61,6 7, 6A6, 6 0 0, 0 1, 12A6, 6 0 0, 0 7, 18C9.61, 18 11.83, 16.33 12.65, 14H17V18H21V14H23V10H12.65Z" class="i pk" transform="translate(103, 73) scale(0.65)"></path></svg></g></g><text class="qdbd-link" x="10" y="20">www.quickdatabasediagrams.com</text></svg>